<mxfile host="app.diagrams.net" agent="Mozilla/5.0 (Windows NT 10.0; Win64; x64) AppleWebKit/537.36 (KHTML, like Gecko) Chrome/131.0.0.0 Safari/537.36 Edg/131.0.0.0" version="24.9.0">
  <diagram id="HvREkYS622G5L-3mX_dz" name="Pagina-1">
    <mxGraphModel dx="1426" dy="755" grid="1" gridSize="10" guides="1" tooltips="1" connect="1" arrows="1" fold="1" page="1" pageScale="1" pageWidth="1169" pageHeight="827" math="0" shadow="0">
      <root>
        <mxCell id="0" />
        <mxCell id="1" parent="0" />
        <mxCell id="OdW6uKtOAu_23CesC0fx-1" value="" style="rounded=0;whiteSpace=wrap;html=1;fillColor=none;strokeWidth=2;strokeColor=#00B300;" vertex="1" parent="1">
          <mxGeometry x="360" y="80" width="120" height="80" as="geometry" />
        </mxCell>
        <mxCell id="OdW6uKtOAu_23CesC0fx-2" value="" style="rounded=0;whiteSpace=wrap;html=1;fillColor=none;strokeWidth=2;strokeColor=#0000FF;" vertex="1" parent="1">
          <mxGeometry x="560" y="80" width="190" height="120" as="geometry" />
        </mxCell>
        <mxCell id="OdW6uKtOAu_23CesC0fx-3" value="&lt;b&gt;&lt;font style=&quot;font-size: 14px;&quot;&gt;r2.left&lt;/font&gt;&lt;/b&gt;" style="text;html=1;align=left;verticalAlign=middle;whiteSpace=wrap;rounded=0;" vertex="1" parent="1">
          <mxGeometry x="560" y="40" width="60" height="30" as="geometry" />
        </mxCell>
        <mxCell id="OdW6uKtOAu_23CesC0fx-4" value="&lt;b&gt;&lt;font style=&quot;font-size: 14px;&quot;&gt;r1.right&lt;/font&gt;&lt;/b&gt;" style="text;html=1;align=right;verticalAlign=middle;whiteSpace=wrap;rounded=0;" vertex="1" parent="1">
          <mxGeometry x="420" y="40" width="60" height="30" as="geometry" />
        </mxCell>
        <mxCell id="OdW6uKtOAu_23CesC0fx-5" value="" style="rounded=0;whiteSpace=wrap;html=1;fillColor=none;strokeWidth=2;strokeColor=#00B300;" vertex="1" parent="1">
          <mxGeometry x="560" y="280" width="120" height="80" as="geometry" />
        </mxCell>
        <mxCell id="OdW6uKtOAu_23CesC0fx-6" value="" style="rounded=0;whiteSpace=wrap;html=1;fillColor=none;strokeWidth=2;strokeColor=#0000FF;" vertex="1" parent="1">
          <mxGeometry x="290" y="280" width="190" height="120" as="geometry" />
        </mxCell>
        <mxCell id="OdW6uKtOAu_23CesC0fx-7" value="&lt;b&gt;&lt;font style=&quot;font-size: 14px;&quot;&gt;r1.left&lt;/font&gt;&lt;/b&gt;" style="text;html=1;align=left;verticalAlign=middle;whiteSpace=wrap;rounded=0;" vertex="1" parent="1">
          <mxGeometry x="560" y="240" width="60" height="30" as="geometry" />
        </mxCell>
        <mxCell id="OdW6uKtOAu_23CesC0fx-8" value="&lt;b&gt;&lt;font style=&quot;font-size: 14px;&quot;&gt;r2.right&lt;/font&gt;&lt;/b&gt;" style="text;html=1;align=right;verticalAlign=middle;whiteSpace=wrap;rounded=0;" vertex="1" parent="1">
          <mxGeometry x="410" y="240" width="60" height="30" as="geometry" />
        </mxCell>
        <mxCell id="OdW6uKtOAu_23CesC0fx-9" value="" style="rounded=0;whiteSpace=wrap;html=1;fillColor=none;strokeWidth=2;strokeColor=#00B300;" vertex="1" parent="1">
          <mxGeometry x="360" y="440" width="120" height="80" as="geometry" />
        </mxCell>
        <mxCell id="OdW6uKtOAu_23CesC0fx-10" value="&lt;b&gt;&lt;font style=&quot;font-size: 14px;&quot;&gt;r1.bottom&lt;/font&gt;&lt;/b&gt;" style="text;html=1;align=left;verticalAlign=middle;whiteSpace=wrap;rounded=0;" vertex="1" parent="1">
          <mxGeometry x="500" y="490" width="60" height="30" as="geometry" />
        </mxCell>
        <mxCell id="OdW6uKtOAu_23CesC0fx-11" value="" style="rounded=0;whiteSpace=wrap;html=1;fillColor=none;strokeWidth=2;strokeColor=#0000FF;" vertex="1" parent="1">
          <mxGeometry x="290" y="560" width="190" height="120" as="geometry" />
        </mxCell>
        <mxCell id="OdW6uKtOAu_23CesC0fx-12" value="&lt;b&gt;&lt;font style=&quot;font-size: 14px;&quot;&gt;r2.top&lt;/font&gt;&lt;/b&gt;" style="text;html=1;align=right;verticalAlign=middle;whiteSpace=wrap;rounded=0;" vertex="1" parent="1">
          <mxGeometry x="480" y="560" width="60" height="30" as="geometry" />
        </mxCell>
        <mxCell id="OdW6uKtOAu_23CesC0fx-13" value="" style="rounded=0;whiteSpace=wrap;html=1;fillColor=none;strokeWidth=2;strokeColor=#0000FF;" vertex="1" parent="1">
          <mxGeometry x="690" y="400" width="190" height="120" as="geometry" />
        </mxCell>
        <mxCell id="OdW6uKtOAu_23CesC0fx-14" value="&lt;b&gt;&lt;font style=&quot;font-size: 14px;&quot;&gt;r2.bottom&lt;/font&gt;&lt;/b&gt;" style="text;html=1;align=right;verticalAlign=middle;whiteSpace=wrap;rounded=0;" vertex="1" parent="1">
          <mxGeometry x="900" y="490" width="60" height="30" as="geometry" />
        </mxCell>
        <mxCell id="OdW6uKtOAu_23CesC0fx-15" value="" style="rounded=0;whiteSpace=wrap;html=1;fillColor=none;strokeWidth=2;strokeColor=#00B300;" vertex="1" parent="1">
          <mxGeometry x="760" y="560" width="120" height="80" as="geometry" />
        </mxCell>
        <mxCell id="OdW6uKtOAu_23CesC0fx-16" value="&lt;b&gt;&lt;font style=&quot;font-size: 14px;&quot;&gt;r1.top&lt;/font&gt;&lt;/b&gt;" style="text;html=1;align=left;verticalAlign=middle;whiteSpace=wrap;rounded=0;" vertex="1" parent="1">
          <mxGeometry x="890" y="560" width="60" height="30" as="geometry" />
        </mxCell>
        <mxCell id="OdW6uKtOAu_23CesC0fx-17" value="&lt;b&gt;&lt;font style=&quot;font-size: 14px;&quot;&gt;&amp;lt;&lt;/font&gt;&lt;/b&gt;" style="text;html=1;align=center;verticalAlign=middle;whiteSpace=wrap;rounded=0;" vertex="1" parent="1">
          <mxGeometry x="490" y="40" width="60" height="30" as="geometry" />
        </mxCell>
        <mxCell id="OdW6uKtOAu_23CesC0fx-18" value="&lt;b&gt;&lt;font style=&quot;font-size: 14px;&quot;&gt;&amp;lt;&lt;/font&gt;&lt;/b&gt;" style="text;html=1;align=center;verticalAlign=middle;whiteSpace=wrap;rounded=0;" vertex="1" parent="1">
          <mxGeometry x="490" y="240" width="60" height="30" as="geometry" />
        </mxCell>
        <mxCell id="OdW6uKtOAu_23CesC0fx-19" value="&lt;b&gt;&lt;font style=&quot;font-size: 14px;&quot;&gt;&amp;lt;&lt;/font&gt;&lt;/b&gt;" style="text;html=1;align=center;verticalAlign=middle;whiteSpace=wrap;rounded=0;" vertex="1" parent="1">
          <mxGeometry x="490" y="530" width="60" height="30" as="geometry" />
        </mxCell>
        <mxCell id="OdW6uKtOAu_23CesC0fx-20" value="&lt;b&gt;&lt;font style=&quot;font-size: 14px;&quot;&gt;&amp;lt;&lt;/font&gt;&lt;/b&gt;" style="text;html=1;align=center;verticalAlign=middle;whiteSpace=wrap;rounded=0;" vertex="1" parent="1">
          <mxGeometry x="870" y="530" width="60" height="30" as="geometry" />
        </mxCell>
      </root>
    </mxGraphModel>
  </diagram>
</mxfile>
